<mxfile host="app.diagrams.net" modified="2023-12-08T01:38:53.180Z" agent="Mozilla/5.0 (Windows NT 10.0; Win64; x64) AppleWebKit/537.36 (KHTML, like Gecko) Chrome/119.0.0.0 Safari/537.36" etag="hCsRjdralqP9UqcvHXJ-" version="22.1.7" type="github">
  <diagram name="Page-1" id="ZeniHqI1XKFf16gRrM0b">
    <mxGraphModel dx="1477" dy="1493" grid="1" gridSize="10" guides="1" tooltips="1" connect="1" arrows="1" fold="1" page="1" pageScale="1" pageWidth="1169" pageHeight="827" math="0" shadow="0">
      <root>
        <mxCell id="0" />
        <mxCell id="1" parent="0" />
        <mxCell id="bou8E0x_bsbhckv4ZRoX-2" value="MovieList UI" style="swimlane;whiteSpace=wrap;html=1;" parent="1" vertex="1">
          <mxGeometry x="1610" y="-438" width="200" height="50" as="geometry" />
        </mxCell>
        <mxCell id="bou8E0x_bsbhckv4ZRoX-28" value="" style="group" parent="1" vertex="1" connectable="0">
          <mxGeometry x="2030" y="-210" width="760" height="483" as="geometry" />
        </mxCell>
        <mxCell id="bou8E0x_bsbhckv4ZRoX-8" value="&amp;lt;&amp;lt;control&amp;gt;&amp;gt;&lt;br&gt;Edit Users" style="swimlane;whiteSpace=wrap;html=1;startSize=40;" parent="bou8E0x_bsbhckv4ZRoX-28" vertex="1">
          <mxGeometry x="560" y="100" width="200" height="60" as="geometry" />
        </mxCell>
        <mxCell id="bou8E0x_bsbhckv4ZRoX-9" value="&amp;lt;&amp;lt;control&amp;gt;&amp;gt;&lt;br&gt;View Users" style="swimlane;whiteSpace=wrap;html=1;startSize=40;" parent="bou8E0x_bsbhckv4ZRoX-28" vertex="1">
          <mxGeometry y="100" width="200" height="60" as="geometry" />
        </mxCell>
        <mxCell id="bou8E0x_bsbhckv4ZRoX-27" value="" style="group" parent="bou8E0x_bsbhckv4ZRoX-28" vertex="1" connectable="0">
          <mxGeometry x="140" width="464" height="483" as="geometry" />
        </mxCell>
        <mxCell id="bou8E0x_bsbhckv4ZRoX-4" value="&amp;lt;&amp;lt;entity&amp;gt;&amp;gt;&lt;br&gt;User" style="swimlane;whiteSpace=wrap;html=1;startSize=40;" parent="bou8E0x_bsbhckv4ZRoX-27" vertex="1">
          <mxGeometry x="120" y="417" width="200" height="66" as="geometry" />
        </mxCell>
        <mxCell id="bou8E0x_bsbhckv4ZRoX-5" value="&amp;lt;&amp;lt;control&amp;gt;&amp;gt;&lt;br&gt;Manage Users" style="swimlane;whiteSpace=wrap;html=1;startSize=40;" parent="bou8E0x_bsbhckv4ZRoX-27" vertex="1">
          <mxGeometry x="120" width="200" height="60" as="geometry" />
        </mxCell>
        <mxCell id="bou8E0x_bsbhckv4ZRoX-26" style="edgeStyle=orthogonalEdgeStyle;rounded=0;orthogonalLoop=1;jettySize=auto;html=1;entryX=0.5;entryY=1;entryDx=0;entryDy=0;" parent="bou8E0x_bsbhckv4ZRoX-27" source="bou8E0x_bsbhckv4ZRoX-4" target="bou8E0x_bsbhckv4ZRoX-5" edge="1">
          <mxGeometry relative="1" as="geometry" />
        </mxCell>
        <mxCell id="bou8E0x_bsbhckv4ZRoX-22" style="edgeStyle=orthogonalEdgeStyle;rounded=0;orthogonalLoop=1;jettySize=auto;html=1;entryX=0.5;entryY=1;entryDx=0;entryDy=0;" parent="bou8E0x_bsbhckv4ZRoX-27" source="bou8E0x_bsbhckv4ZRoX-6" target="bou8E0x_bsbhckv4ZRoX-5" edge="1">
          <mxGeometry relative="1" as="geometry" />
        </mxCell>
        <mxCell id="bou8E0x_bsbhckv4ZRoX-6" value="&amp;lt;&amp;lt;control&amp;gt;&amp;gt;&lt;br&gt;Add Users" style="swimlane;whiteSpace=wrap;html=1;startSize=40;" parent="bou8E0x_bsbhckv4ZRoX-27" vertex="1">
          <mxGeometry y="220" width="200" height="60" as="geometry" />
        </mxCell>
        <mxCell id="bou8E0x_bsbhckv4ZRoX-24" style="edgeStyle=orthogonalEdgeStyle;rounded=0;orthogonalLoop=1;jettySize=auto;html=1;" parent="bou8E0x_bsbhckv4ZRoX-27" source="bou8E0x_bsbhckv4ZRoX-7" edge="1">
          <mxGeometry relative="1" as="geometry">
            <mxPoint x="220" y="60" as="targetPoint" />
            <Array as="points">
              <mxPoint x="364" y="140" />
              <mxPoint x="221" y="140" />
              <mxPoint x="221" y="70" />
              <mxPoint x="220" y="70" />
            </Array>
          </mxGeometry>
        </mxCell>
        <mxCell id="bou8E0x_bsbhckv4ZRoX-7" value="&amp;lt;&amp;lt;control&amp;gt;&amp;gt;&lt;br&gt;Delete Users" style="swimlane;whiteSpace=wrap;html=1;startSize=40;" parent="bou8E0x_bsbhckv4ZRoX-27" vertex="1">
          <mxGeometry x="264" y="220" width="200" height="60" as="geometry" />
        </mxCell>
        <mxCell id="bou8E0x_bsbhckv4ZRoX-25" style="edgeStyle=orthogonalEdgeStyle;rounded=0;orthogonalLoop=1;jettySize=auto;html=1;entryX=1;entryY=0.5;entryDx=0;entryDy=0;" parent="bou8E0x_bsbhckv4ZRoX-28" source="bou8E0x_bsbhckv4ZRoX-8" target="bou8E0x_bsbhckv4ZRoX-5" edge="1">
          <mxGeometry relative="1" as="geometry" />
        </mxCell>
        <mxCell id="bou8E0x_bsbhckv4ZRoX-21" style="edgeStyle=orthogonalEdgeStyle;rounded=0;orthogonalLoop=1;jettySize=auto;html=1;entryX=0;entryY=0.5;entryDx=0;entryDy=0;" parent="bou8E0x_bsbhckv4ZRoX-28" source="bou8E0x_bsbhckv4ZRoX-9" target="bou8E0x_bsbhckv4ZRoX-5" edge="1">
          <mxGeometry relative="1" as="geometry" />
        </mxCell>
        <mxCell id="bou8E0x_bsbhckv4ZRoX-39" value="" style="group" parent="1" vertex="1" connectable="0">
          <mxGeometry x="1410" y="-210" width="600" height="530" as="geometry" />
        </mxCell>
        <mxCell id="bou8E0x_bsbhckv4ZRoX-17" value="&amp;lt;&amp;lt;control&amp;gt;&amp;gt;&lt;br&gt;Manage Movie Reviews" style="swimlane;whiteSpace=wrap;html=1;startSize=40;" parent="bou8E0x_bsbhckv4ZRoX-39" vertex="1">
          <mxGeometry x="200" width="200" height="60" as="geometry" />
        </mxCell>
        <mxCell id="bou8E0x_bsbhckv4ZRoX-35" style="edgeStyle=orthogonalEdgeStyle;rounded=0;orthogonalLoop=1;jettySize=auto;html=1;entryX=0.5;entryY=1;entryDx=0;entryDy=0;" parent="bou8E0x_bsbhckv4ZRoX-39" source="bou8E0x_bsbhckv4ZRoX-30" target="bou8E0x_bsbhckv4ZRoX-17" edge="1">
          <mxGeometry relative="1" as="geometry" />
        </mxCell>
        <mxCell id="bou8E0x_bsbhckv4ZRoX-30" value="&amp;lt;&amp;lt;control&amp;gt;&amp;gt;&lt;br&gt;Delete Movie Reviews" style="swimlane;whiteSpace=wrap;html=1;startSize=40;" parent="bou8E0x_bsbhckv4ZRoX-39" vertex="1">
          <mxGeometry x="10" y="344" width="200" height="60" as="geometry" />
        </mxCell>
        <mxCell id="bou8E0x_bsbhckv4ZRoX-34" style="edgeStyle=orthogonalEdgeStyle;rounded=0;orthogonalLoop=1;jettySize=auto;html=1;entryX=1;entryY=0.5;entryDx=0;entryDy=0;" parent="bou8E0x_bsbhckv4ZRoX-39" source="bou8E0x_bsbhckv4ZRoX-31" target="bou8E0x_bsbhckv4ZRoX-17" edge="1">
          <mxGeometry relative="1" as="geometry" />
        </mxCell>
        <mxCell id="bou8E0x_bsbhckv4ZRoX-31" value="&amp;lt;&amp;lt;control&amp;gt;&amp;gt;&lt;br&gt;View Movie Reviews" style="swimlane;whiteSpace=wrap;html=1;startSize=40;" parent="bou8E0x_bsbhckv4ZRoX-39" vertex="1">
          <mxGeometry x="400" y="120" width="200" height="60" as="geometry" />
        </mxCell>
        <mxCell id="bou8E0x_bsbhckv4ZRoX-33" style="edgeStyle=orthogonalEdgeStyle;rounded=0;orthogonalLoop=1;jettySize=auto;html=1;entryX=0;entryY=0.5;entryDx=0;entryDy=0;" parent="bou8E0x_bsbhckv4ZRoX-39" source="bou8E0x_bsbhckv4ZRoX-32" target="bou8E0x_bsbhckv4ZRoX-17" edge="1">
          <mxGeometry relative="1" as="geometry" />
        </mxCell>
        <mxCell id="bou8E0x_bsbhckv4ZRoX-32" value="&amp;lt;&amp;lt;control&amp;gt;&amp;gt;&lt;br&gt;Add Movie Reviews" style="swimlane;whiteSpace=wrap;html=1;startSize=40;" parent="bou8E0x_bsbhckv4ZRoX-39" vertex="1">
          <mxGeometry y="120" width="200" height="60" as="geometry" />
        </mxCell>
        <mxCell id="bou8E0x_bsbhckv4ZRoX-38" style="edgeStyle=orthogonalEdgeStyle;rounded=0;orthogonalLoop=1;jettySize=auto;html=1;entryX=0.5;entryY=1;entryDx=0;entryDy=0;" parent="bou8E0x_bsbhckv4ZRoX-39" source="bou8E0x_bsbhckv4ZRoX-36" target="bou8E0x_bsbhckv4ZRoX-17" edge="1">
          <mxGeometry relative="1" as="geometry" />
        </mxCell>
        <mxCell id="bou8E0x_bsbhckv4ZRoX-36" value="&amp;lt;&amp;lt;entity&amp;gt;&amp;gt;&lt;br&gt;Movie Reviews" style="swimlane;whiteSpace=wrap;html=1;startSize=40;" parent="bou8E0x_bsbhckv4ZRoX-39" vertex="1">
          <mxGeometry x="200" y="470" width="200" height="60" as="geometry" />
        </mxCell>
        <mxCell id="5YAnPsfXHZ9A6MLN7WG7-4" value="" style="group" vertex="1" connectable="0" parent="1">
          <mxGeometry x="1270" y="-340" width="200" height="200" as="geometry" />
        </mxCell>
        <mxCell id="bou8E0x_bsbhckv4ZRoX-1" value="&amp;lt;&amp;lt;control&amp;gt;&amp;gt;&lt;br&gt;Manage Movies" style="swimlane;whiteSpace=wrap;html=1;startSize=40;" parent="5YAnPsfXHZ9A6MLN7WG7-4" vertex="1">
          <mxGeometry width="200" height="60" as="geometry" />
        </mxCell>
        <mxCell id="5YAnPsfXHZ9A6MLN7WG7-3" style="edgeStyle=orthogonalEdgeStyle;rounded=0;orthogonalLoop=1;jettySize=auto;html=1;entryX=0.5;entryY=1;entryDx=0;entryDy=0;" edge="1" parent="5YAnPsfXHZ9A6MLN7WG7-4" source="5YAnPsfXHZ9A6MLN7WG7-1" target="bou8E0x_bsbhckv4ZRoX-1">
          <mxGeometry relative="1" as="geometry" />
        </mxCell>
        <mxCell id="5YAnPsfXHZ9A6MLN7WG7-1" value="&amp;lt;&amp;lt;control&amp;gt;&amp;gt;&lt;br&gt;View Movies" style="swimlane;whiteSpace=wrap;html=1;startSize=40;" vertex="1" parent="5YAnPsfXHZ9A6MLN7WG7-4">
          <mxGeometry y="140" width="200" height="60" as="geometry" />
        </mxCell>
        <mxCell id="5YAnPsfXHZ9A6MLN7WG7-13" value="" style="group" vertex="1" connectable="0" parent="1">
          <mxGeometry x="720" y="-210" width="600" height="376" as="geometry" />
        </mxCell>
        <mxCell id="bou8E0x_bsbhckv4ZRoX-11" value="&amp;lt;&amp;lt;control&amp;gt;&amp;gt;&lt;br&gt;Manage MyList" style="swimlane;whiteSpace=wrap;html=1;startSize=40;" parent="5YAnPsfXHZ9A6MLN7WG7-13" vertex="1">
          <mxGeometry x="200" width="200" height="60" as="geometry" />
        </mxCell>
        <mxCell id="5YAnPsfXHZ9A6MLN7WG7-8" style="edgeStyle=orthogonalEdgeStyle;rounded=0;orthogonalLoop=1;jettySize=auto;html=1;entryX=1;entryY=0.5;entryDx=0;entryDy=0;" edge="1" parent="5YAnPsfXHZ9A6MLN7WG7-13" source="bou8E0x_bsbhckv4ZRoX-12" target="bou8E0x_bsbhckv4ZRoX-11">
          <mxGeometry relative="1" as="geometry" />
        </mxCell>
        <mxCell id="bou8E0x_bsbhckv4ZRoX-12" value="&amp;lt;&amp;lt;control&amp;gt;&amp;gt;&lt;br&gt;Add MyList" style="swimlane;whiteSpace=wrap;html=1;startSize=36;" parent="5YAnPsfXHZ9A6MLN7WG7-13" vertex="1">
          <mxGeometry x="400" y="94" width="200" height="56" as="geometry" />
        </mxCell>
        <mxCell id="5YAnPsfXHZ9A6MLN7WG7-7" style="edgeStyle=orthogonalEdgeStyle;rounded=0;orthogonalLoop=1;jettySize=auto;html=1;entryX=0;entryY=0.5;entryDx=0;entryDy=0;" edge="1" parent="5YAnPsfXHZ9A6MLN7WG7-13" source="bou8E0x_bsbhckv4ZRoX-14" target="bou8E0x_bsbhckv4ZRoX-11">
          <mxGeometry relative="1" as="geometry" />
        </mxCell>
        <mxCell id="bou8E0x_bsbhckv4ZRoX-14" value="&amp;lt;&amp;lt;control&amp;gt;&amp;gt;&lt;br&gt;Edit MyList" style="swimlane;whiteSpace=wrap;html=1;startSize=40;" parent="5YAnPsfXHZ9A6MLN7WG7-13" vertex="1">
          <mxGeometry y="90" width="200" height="60" as="geometry" />
        </mxCell>
        <mxCell id="5YAnPsfXHZ9A6MLN7WG7-10" style="edgeStyle=orthogonalEdgeStyle;rounded=0;orthogonalLoop=1;jettySize=auto;html=1;entryX=0.5;entryY=1;entryDx=0;entryDy=0;exitX=0.5;exitY=0;exitDx=0;exitDy=0;" edge="1" parent="5YAnPsfXHZ9A6MLN7WG7-13" source="5YAnPsfXHZ9A6MLN7WG7-5" target="bou8E0x_bsbhckv4ZRoX-11">
          <mxGeometry relative="1" as="geometry">
            <Array as="points">
              <mxPoint x="440" y="160" />
              <mxPoint x="300" y="160" />
            </Array>
          </mxGeometry>
        </mxCell>
        <mxCell id="5YAnPsfXHZ9A6MLN7WG7-5" value="&amp;lt;&amp;lt;control&amp;gt;&amp;gt;&lt;br&gt;Delete MyList" style="swimlane;whiteSpace=wrap;html=1;startSize=36;" vertex="1" parent="5YAnPsfXHZ9A6MLN7WG7-13">
          <mxGeometry x="340" y="200" width="200" height="56" as="geometry" />
        </mxCell>
        <mxCell id="5YAnPsfXHZ9A6MLN7WG7-9" style="edgeStyle=orthogonalEdgeStyle;rounded=0;orthogonalLoop=1;jettySize=auto;html=1;entryX=0.5;entryY=1;entryDx=0;entryDy=0;" edge="1" parent="5YAnPsfXHZ9A6MLN7WG7-13" source="5YAnPsfXHZ9A6MLN7WG7-6" target="bou8E0x_bsbhckv4ZRoX-11">
          <mxGeometry relative="1" as="geometry">
            <Array as="points">
              <mxPoint x="170" y="160" />
              <mxPoint x="300" y="160" />
            </Array>
          </mxGeometry>
        </mxCell>
        <mxCell id="5YAnPsfXHZ9A6MLN7WG7-6" value="&amp;lt;&amp;lt;control&amp;gt;&amp;gt;&lt;br&gt;View MyList" style="swimlane;whiteSpace=wrap;html=1;startSize=36;" vertex="1" parent="5YAnPsfXHZ9A6MLN7WG7-13">
          <mxGeometry x="70" y="200" width="180" height="56" as="geometry" />
        </mxCell>
        <mxCell id="5YAnPsfXHZ9A6MLN7WG7-12" style="edgeStyle=orthogonalEdgeStyle;rounded=0;orthogonalLoop=1;jettySize=auto;html=1;entryX=0.5;entryY=1;entryDx=0;entryDy=0;" edge="1" parent="5YAnPsfXHZ9A6MLN7WG7-13" source="5YAnPsfXHZ9A6MLN7WG7-11" target="bou8E0x_bsbhckv4ZRoX-11">
          <mxGeometry relative="1" as="geometry">
            <Array as="points">
              <mxPoint x="300" y="250" />
              <mxPoint x="300" y="250" />
            </Array>
          </mxGeometry>
        </mxCell>
        <mxCell id="5YAnPsfXHZ9A6MLN7WG7-11" value="&amp;lt;&amp;lt;entity&amp;gt;&amp;gt;&lt;br&gt;MyList" style="swimlane;whiteSpace=wrap;html=1;startSize=36;" vertex="1" parent="5YAnPsfXHZ9A6MLN7WG7-13">
          <mxGeometry x="210" y="320" width="180" height="56" as="geometry" />
        </mxCell>
        <mxCell id="5YAnPsfXHZ9A6MLN7WG7-15" style="edgeStyle=orthogonalEdgeStyle;rounded=0;orthogonalLoop=1;jettySize=auto;html=1;entryX=0.5;entryY=1;entryDx=0;entryDy=0;" edge="1" parent="1" source="bou8E0x_bsbhckv4ZRoX-17" target="bou8E0x_bsbhckv4ZRoX-2">
          <mxGeometry relative="1" as="geometry" />
        </mxCell>
        <mxCell id="5YAnPsfXHZ9A6MLN7WG7-16" style="edgeStyle=orthogonalEdgeStyle;rounded=0;orthogonalLoop=1;jettySize=auto;html=1;entryX=0;entryY=0.5;entryDx=0;entryDy=0;" edge="1" parent="1" source="bou8E0x_bsbhckv4ZRoX-11" target="bou8E0x_bsbhckv4ZRoX-2">
          <mxGeometry relative="1" as="geometry">
            <Array as="points">
              <mxPoint x="1020" y="-413" />
            </Array>
          </mxGeometry>
        </mxCell>
        <mxCell id="5YAnPsfXHZ9A6MLN7WG7-17" style="edgeStyle=orthogonalEdgeStyle;rounded=0;orthogonalLoop=1;jettySize=auto;html=1;entryX=1;entryY=0.5;entryDx=0;entryDy=0;" edge="1" parent="1" source="bou8E0x_bsbhckv4ZRoX-5" target="bou8E0x_bsbhckv4ZRoX-2">
          <mxGeometry relative="1" as="geometry">
            <Array as="points">
              <mxPoint x="2390" y="-410" />
              <mxPoint x="2050" y="-410" />
              <mxPoint x="2050" y="-413" />
            </Array>
          </mxGeometry>
        </mxCell>
        <mxCell id="5YAnPsfXHZ9A6MLN7WG7-19" style="edgeStyle=orthogonalEdgeStyle;rounded=0;orthogonalLoop=1;jettySize=auto;html=1;entryX=0.5;entryY=1;entryDx=0;entryDy=0;" edge="1" parent="1" source="bou8E0x_bsbhckv4ZRoX-1" target="bou8E0x_bsbhckv4ZRoX-2">
          <mxGeometry relative="1" as="geometry" />
        </mxCell>
        <mxCell id="5YAnPsfXHZ9A6MLN7WG7-22" value="" style="group" vertex="1" connectable="0" parent="1">
          <mxGeometry x="400" y="-340" width="200" height="215" as="geometry" />
        </mxCell>
        <mxCell id="bou8E0x_bsbhckv4ZRoX-3" value="&amp;lt;&amp;lt;boundary&amp;gt;&amp;gt;&lt;br&gt;API UI" style="swimlane;whiteSpace=wrap;html=1;startSize=40;" parent="5YAnPsfXHZ9A6MLN7WG7-22" vertex="1">
          <mxGeometry width="200" height="56" as="geometry" />
        </mxCell>
        <mxCell id="5YAnPsfXHZ9A6MLN7WG7-21" style="edgeStyle=orthogonalEdgeStyle;rounded=0;orthogonalLoop=1;jettySize=auto;html=1;entryX=0.5;entryY=1;entryDx=0;entryDy=0;" edge="1" parent="5YAnPsfXHZ9A6MLN7WG7-22" source="bou8E0x_bsbhckv4ZRoX-40" target="bou8E0x_bsbhckv4ZRoX-3">
          <mxGeometry relative="1" as="geometry" />
        </mxCell>
        <mxCell id="bou8E0x_bsbhckv4ZRoX-40" value="&amp;lt;&amp;lt;control&amp;gt;&amp;gt;&lt;br&gt;Request" style="swimlane;whiteSpace=wrap;html=1;startSize=50;" parent="5YAnPsfXHZ9A6MLN7WG7-22" vertex="1">
          <mxGeometry y="145" width="200" height="70" as="geometry" />
        </mxCell>
      </root>
    </mxGraphModel>
  </diagram>
</mxfile>
